<svg width="25" height="24" viewBox="0 0 25 24" fill="none" xmlns="http://www.w3.org/2000/svg">
<path d="M12.6674 0C9.40835 0 8.99934 0.0142502 7.71933 0.0725002C6.44181 0.131 5.56981 0.33325 4.8068 0.63C4.01754 0.9365 3.34803 1.3465 2.68103 2.01375C2.01352 2.68075 1.60351 3.35025 1.29601 4.13925C0.998507 4.9025 0.796005 5.77475 0.738505 7.05175C0.681504 8.33175 0.666504 8.741 0.666504 12C0.666504 15.259 0.681004 15.6668 0.739005 16.9468C0.797756 18.2243 1.00001 19.0963 1.29651 19.8593C1.60326 20.6485 2.01327 21.318 2.68053 21.985C3.34728 22.6525 4.01679 23.0635 4.80555 23.37C5.56906 23.6667 6.44131 23.869 7.71858 23.9275C8.99859 23.9858 9.40735 24 12.6661 24C15.9254 24 16.3332 23.9858 17.6132 23.9275C18.8907 23.869 19.7637 23.6667 20.5272 23.37C21.3162 23.0635 21.9847 22.6525 22.6515 21.985C23.319 21.318 23.729 20.6485 24.0365 19.8595C24.3315 19.0963 24.534 18.224 24.594 16.947C24.6515 15.667 24.6665 15.259 24.6665 12C24.6665 8.741 24.6515 8.332 24.594 7.052C24.534 5.7745 24.3315 4.9025 24.0365 4.1395C23.729 3.35025 23.319 2.68075 22.6515 2.01375C21.984 1.34625 21.3165 0.93625 20.5265 0.63C19.7615 0.33325 18.8889 0.131 17.6114 0.0725002C16.3314 0.0142502 15.9239 0 12.6639 0H12.6674ZM11.5909 2.1625C11.9104 2.162 12.2669 2.1625 12.6674 2.1625C15.8714 2.1625 16.2512 2.174 17.5164 2.2315C18.6864 2.285 19.3214 2.4805 19.7445 2.64475C20.3045 2.86225 20.7037 3.12225 21.1235 3.54225C21.5435 3.96225 21.8035 4.36225 22.0215 4.92225C22.1857 5.34475 22.3815 5.97975 22.4347 7.14975C22.4922 8.41475 22.5047 8.79475 22.5047 11.9972C22.5047 15.1997 22.4922 15.5798 22.4347 16.8448C22.3812 18.0148 22.1857 18.6497 22.0215 19.0723C21.804 19.6322 21.5435 20.031 21.1235 20.4508C20.7035 20.8708 20.3047 21.1307 19.7445 21.3482C19.3219 21.5133 18.6864 21.7083 17.5164 21.7617C16.2514 21.8193 15.8714 21.8318 12.6674 21.8318C9.4631 21.8318 9.08334 21.8193 7.81833 21.7617C6.64832 21.7077 6.01331 21.5122 5.59006 21.348C5.03005 21.1305 4.63005 20.8705 4.21004 20.4505C3.79004 20.0305 3.53003 19.6315 3.31203 19.0713C3.14778 18.6488 2.95203 18.0138 2.89878 16.8438C2.84128 15.5787 2.82978 15.1988 2.82978 11.9943C2.82978 8.78975 2.84128 8.41175 2.89878 7.14675C2.95228 5.97675 3.14778 5.34175 3.31203 4.91875C3.52953 4.35875 3.79004 3.95875 4.21004 3.53875C4.63005 3.11875 5.03005 2.85875 5.59006 2.64075C6.01306 2.47575 6.64832 2.28075 7.81833 2.227C8.92534 2.177 9.35434 2.162 11.5909 2.1595V2.1625Z" fill="#4C4948"/>
<path d="M19.0471 4.12552C18.7623 4.12552 18.4839 4.20999 18.2471 4.36824C18.0102 4.52649 17.8257 4.75142 17.7167 5.01457C17.6077 5.27773 17.5792 5.56729 17.6348 5.84664C17.6904 6.12598 17.8276 6.38257 18.0291 6.58393C18.2305 6.7853 18.4871 6.92241 18.7665 6.97791C19.0459 7.03342 19.3354 7.00483 19.5986 6.89577C19.8617 6.7867 20.0865 6.60205 20.2447 6.36518C20.4029 6.12831 20.4873 5.84985 20.4872 5.56502C20.4872 4.77002 19.8421 4.12552 19.0471 4.12552Z" fill="#4C4948"/>
<path fill-rule="evenodd" clip-rule="evenodd" d="M12.6416 5.80802C9.23829 5.80802 6.47901 8.56727 6.47901 11.9705C6.47901 15.3738 9.23829 18.1318 12.6416 18.1318C16.0449 18.1318 18.8034 15.3738 18.8034 11.9705C18.8034 8.56727 16.0449 5.80802 12.6416 5.80802ZM12.6665 15.9375C14.8411 15.9375 16.604 14.1746 16.604 12C16.604 9.8254 14.8411 8.06252 12.6665 8.06252C10.4919 8.06252 8.72901 9.8254 8.72901 12C8.72901 14.1746 10.4919 15.9375 12.6665 15.9375Z" fill="#4C4948"/>
</svg>
