<svg width="394" height="64" viewBox="0 0 394 64" fill="none" xmlns="http://www.w3.org/2000/svg">
<path d="M62.5599 59.5858H26.8082L35.7409 0.0101562H71.4926L70.799 4.7287C69.9372 10.5717 64.9244 14.9014 59.0079 14.9014H50.6427L44.8312 53.6272H63.4532L62.5599 59.5858Z" fill="#EA5514"/>
<path d="M2.23842 0L0 14.9018H21.5961L14.8913 59.5862H20.8499L29.7931 0H2.23842Z" fill="#2660AD"/>
<path d="M84.8079 59.67V47.427H80.4361V44.9363H92.1432V47.427H87.7819V59.67H84.8079Z" fill="#4C4948"/>
<path d="M94.6233 52.2612L92.0591 51.7988C92.3429 50.7689 92.8473 50.0018 93.5514 49.5079C94.2555 49.0139 95.2959 48.7617 96.6831 48.7617C97.9442 48.7617 98.8795 48.9088 99.4995 49.2136C100.12 49.5184 100.55 49.8862 100.803 50.3486C101.055 50.811 101.181 51.6517 101.181 52.8812L101.149 56.1811C101.149 57.1164 101.191 57.81 101.286 58.2514C101.381 58.6927 101.549 59.1761 101.79 59.6806H98.9951C98.9215 59.4914 98.8269 59.2182 98.7219 58.8504C98.6798 58.6822 98.6378 58.5771 98.6168 58.5141C98.1333 58.987 97.6184 59.3338 97.0719 59.565C96.5255 59.7962 95.937 59.9118 95.3169 59.9118C94.2135 59.9118 93.3517 59.6176 92.7212 59.0185C92.0907 58.4195 91.7754 57.6734 91.7754 56.7591C91.7754 56.1601 91.9225 55.6136 92.2063 55.1512C92.49 54.6888 92.8998 54.321 93.4148 54.0688C93.9297 53.8165 94.6864 53.5959 95.6637 53.4067C96.9879 53.1545 97.9022 52.9233 98.4066 52.7131V52.4294C98.4066 51.8829 98.27 51.5046 98.0072 51.2734C97.7445 51.0422 97.2296 50.9266 96.4939 50.9266C95.9895 50.9266 95.6007 51.0212 95.3169 51.2208C95.0332 51.4205 94.8125 51.7673 94.6339 52.2612H94.6233ZM98.4066 54.5522C98.0493 54.6678 97.4713 54.8149 96.6831 54.983C95.8949 55.1512 95.3905 55.3193 95.1488 55.477C94.781 55.7397 94.5918 56.0655 94.5918 56.4753C94.5918 56.8852 94.7389 57.211 95.0332 57.5052C95.3274 57.7995 95.7058 57.9361 96.1577 57.9361C96.6621 57.9361 97.156 57.768 97.6184 57.4317C97.9652 57.1795 98.1859 56.8642 98.291 56.4963C98.3645 56.2546 98.4066 55.7922 98.4066 55.1197V54.5522Z" fill="#4C4948"/>
<path d="M103.955 47.5531V44.9363H106.782V47.5531H103.955ZM103.955 59.67V48.9928H106.782V59.67H103.955Z" fill="#4C4948"/>
<path d="M125.814 54.2577L128.694 55.172C128.252 56.7798 127.517 57.9779 126.487 58.7555C125.457 59.5332 124.154 59.922 122.567 59.922C120.612 59.922 119.004 59.2495 117.743 57.9148C116.482 56.5802 115.852 54.7516 115.852 52.4291C115.852 49.9805 116.482 48.0679 117.754 46.7122C119.025 45.3565 120.686 44.6734 122.746 44.6734C124.553 44.6734 126.014 45.2094 127.138 46.2708C127.811 46.9013 128.315 47.8051 128.641 48.9821L125.699 49.6862C125.52 48.9191 125.163 48.3201 124.606 47.8787C124.049 47.4373 123.376 47.2166 122.588 47.2166C121.495 47.2166 120.612 47.6054 119.929 48.3936C119.246 49.1818 118.91 50.4429 118.91 52.1979C118.91 54.058 119.246 55.3926 119.919 56.1808C120.591 56.969 121.464 57.3683 122.535 57.3683C123.324 57.3683 124.007 57.1161 124.574 56.6117C125.142 56.1073 125.552 55.3191 125.804 54.2366L125.814 54.2577Z" fill="#4C4948"/>
<path d="M134.043 44.9363V50.3485C134.957 49.2871 136.039 48.7511 137.311 48.7511C137.962 48.7511 138.551 48.8667 139.066 49.1084C139.581 49.3501 139.98 49.6549 140.243 50.0332C140.506 50.4115 140.684 50.8214 140.789 51.2838C140.894 51.7462 140.936 52.4503 140.936 53.4066V59.67H138.11V54.0266C138.11 52.9127 138.057 52.1981 137.952 51.8933C137.847 51.5886 137.658 51.3468 137.384 51.1787C137.111 51.0105 136.775 50.916 136.365 50.916C135.892 50.916 135.482 51.0316 135.104 51.2628C134.726 51.494 134.463 51.8302 134.295 52.2926C134.127 52.755 134.043 53.4276 134.043 54.3314V59.6805H131.216V44.9468H134.043V44.9363Z" fill="#4C4948"/>
<path d="M150.826 59.6705V58.0731C150.437 58.6406 149.922 59.0925 149.291 59.4183C148.661 59.7441 147.988 59.9122 147.284 59.9122C146.58 59.9122 145.928 59.7546 145.35 59.4393C144.772 59.1241 144.373 58.6827 144.11 58.1152C143.848 57.5477 143.732 56.7595 143.732 55.7507V48.9934H146.559V53.9011C146.559 55.4039 146.611 56.3181 146.717 56.6649C146.822 57.0117 147.011 57.2745 147.284 57.4742C147.557 57.6738 147.904 57.7684 148.324 57.7684C148.808 57.7684 149.239 57.6318 149.617 57.3691C149.995 57.1063 150.258 56.7805 150.405 56.3812C150.552 55.9819 150.615 55.0255 150.615 53.5017V49.0039H153.442V59.681H150.815L150.826 59.6705Z" fill="#4C4948"/>
<path d="M158.487 52.2612L155.923 51.7988C156.206 50.7689 156.711 50.0018 157.415 49.5079C158.119 49.0139 159.159 48.7617 160.547 48.7617C161.808 48.7617 162.743 48.9088 163.363 49.2136C163.983 49.5184 164.414 49.8862 164.666 50.3486C164.918 50.811 165.044 51.6517 165.044 52.8812L165.013 56.1811C165.013 57.1164 165.055 57.81 165.15 58.2514C165.244 58.6927 165.412 59.1761 165.654 59.6806H162.859C162.785 59.4914 162.69 59.2182 162.585 58.8504C162.543 58.6822 162.501 58.5771 162.48 58.5141C161.997 58.987 161.482 59.3338 160.935 59.565C160.389 59.7962 159.8 59.9118 159.18 59.9118C158.077 59.9118 157.215 59.6176 156.585 59.0185C155.954 58.4195 155.639 57.6734 155.639 56.7591C155.639 56.1601 155.786 55.6136 156.07 55.1512C156.353 54.6888 156.763 54.321 157.278 54.0688C157.793 53.8165 158.55 53.5959 159.527 53.4067C160.851 53.1545 161.766 52.9233 162.27 52.7131V52.4294C162.27 51.8829 162.133 51.5046 161.871 51.2734C161.608 51.0422 161.093 50.9266 160.357 50.9266C159.853 50.9266 159.464 51.0212 159.18 51.2208C158.897 51.4205 158.676 51.7673 158.497 52.2612H158.487ZM162.27 54.5522C161.913 54.6678 161.335 54.8149 160.547 54.983C159.758 55.1512 159.254 55.3193 159.012 55.477C158.644 55.7397 158.455 56.0655 158.455 56.4753C158.455 56.8852 158.602 57.211 158.897 57.5052C159.191 57.7995 159.569 57.9361 160.021 57.9361C160.526 57.9361 161.019 57.768 161.482 57.4317C161.829 57.1795 162.049 56.8642 162.154 56.4963C162.228 56.2546 162.27 55.7922 162.27 55.1197V54.5522Z" fill="#4C4948"/>
<path d="M177.529 59.67H174.702V54.2263C174.702 53.0703 174.639 52.3242 174.523 51.9879C174.408 51.6516 174.208 51.3889 173.935 51.1997C173.662 51.0106 173.336 50.916 172.958 50.916C172.464 50.916 172.033 51.0526 171.644 51.3153C171.255 51.578 170.992 51.9354 170.845 52.3767C170.698 52.8181 170.625 53.6378 170.625 54.8253V59.6595H167.798V48.9823H170.425V50.5481C171.36 49.3396 172.527 48.7406 173.945 48.7406C174.565 48.7406 175.133 48.8562 175.658 49.0769C176.184 49.2976 176.562 49.5918 176.825 49.9386C177.088 50.2854 177.277 50.6848 177.382 51.1262C177.487 51.5675 177.54 52.1981 177.54 53.0283V59.6595L177.529 59.67Z" fill="#4C4948"/>
<path d="M180.135 60.3742L183.362 60.763C183.414 61.1413 183.54 61.3936 183.729 61.5407C183.992 61.7404 184.423 61.8454 185.001 61.8454C185.737 61.8454 186.294 61.7299 186.661 61.5092C186.914 61.362 187.092 61.1203 187.229 60.7945C187.313 60.5633 187.355 60.1325 187.355 59.5019V57.9466C186.514 59.1026 185.442 59.6701 184.16 59.6701C182.731 59.6701 181.596 59.0606 180.755 57.852C180.104 56.8957 179.768 55.6977 179.768 54.279C179.768 52.4924 180.198 51.1263 181.06 50.1804C181.922 49.2346 182.994 48.7617 184.276 48.7617C185.558 48.7617 186.683 49.3397 187.544 50.4957V48.9929H190.193V58.5666C190.193 59.8277 190.087 60.763 189.877 61.3936C189.667 62.0241 189.383 62.5075 189.005 62.8648C188.627 63.2221 188.133 63.4954 187.502 63.695C186.872 63.8947 186.083 63.9998 185.127 63.9998C183.32 63.9998 182.038 63.6845 181.281 63.075C180.524 62.4655 180.146 61.6668 180.146 60.721C180.146 60.6264 180.146 60.5108 180.146 60.3742H180.135ZM182.658 54.1108C182.658 55.2458 182.878 56.076 183.32 56.6014C183.761 57.1269 184.297 57.3896 184.938 57.3896C185.632 57.3896 186.21 57.1164 186.683 56.5804C187.155 56.0445 187.397 55.2458 187.397 54.1844C187.397 53.123 187.166 52.2612 186.714 51.7253C186.262 51.1893 185.684 50.9161 184.991 50.9161C184.297 50.9161 183.761 51.1788 183.32 51.7042C182.878 52.2297 182.658 53.0284 182.658 54.1108Z" fill="#4C4948"/>
<path d="M204.684 44.9363C205.914 44.9363 206.849 45.0309 207.49 45.2201C208.352 45.4723 209.098 45.9242 209.707 46.5757C210.317 47.2273 210.79 48.026 211.116 48.9613C211.441 49.8966 211.599 51.0631 211.599 52.4398C211.599 53.6483 211.452 54.6992 211.147 55.5715C210.779 56.6434 210.254 57.5156 209.571 58.1777C209.056 58.6821 208.362 59.071 207.48 59.3547C206.828 59.5649 205.945 59.67 204.842 59.67H199.24V44.9363H204.684ZM202.225 47.427V57.1898H204.442C205.273 57.1898 205.872 57.1478 206.239 57.0532C206.723 56.9376 207.122 56.7275 207.437 56.4437C207.753 56.16 208.015 55.6765 208.215 55.025C208.415 54.3734 208.52 53.4696 208.52 52.3242C208.52 51.1787 208.415 50.3064 208.215 49.6969C208.015 49.0874 207.732 48.6145 207.374 48.2677C207.017 47.9209 206.555 47.6897 205.998 47.5741C205.577 47.4795 204.768 47.4375 203.56 47.4375H202.225V47.427Z" fill="#4C4948"/>
<path d="M214.111 47.5531V44.9363H216.938V47.5531H214.111ZM214.111 59.67V48.9928H216.938V59.67H214.111Z" fill="#4C4948"/>
<path d="M219.565 60.3742L222.791 60.763C222.844 61.1413 222.97 61.3936 223.159 61.5407C223.422 61.7404 223.853 61.8454 224.431 61.8454C225.166 61.8454 225.723 61.7299 226.091 61.5092C226.343 61.362 226.522 61.1203 226.659 60.7945C226.743 60.5633 226.785 60.1325 226.785 59.5019V57.9466C225.944 59.1026 224.872 59.6701 223.59 59.6701C222.161 59.6701 221.026 59.0606 220.185 57.852C219.534 56.8957 219.197 55.6977 219.197 54.279C219.197 52.4924 219.628 51.1263 220.49 50.1804C221.352 49.2346 222.424 48.7617 223.706 48.7617C224.988 48.7617 226.112 49.3397 226.974 50.4957V48.9929H229.622V58.5666C229.622 59.8277 229.517 60.763 229.307 61.3936C229.097 62.0241 228.813 62.5075 228.435 62.8648C228.056 63.2221 227.562 63.4954 226.932 63.695C226.301 63.8947 225.513 63.9998 224.557 63.9998C222.749 63.9998 221.467 63.6845 220.711 63.075C219.954 62.4655 219.576 61.6668 219.576 60.721C219.576 60.6264 219.576 60.5108 219.576 60.3742H219.565ZM222.087 54.1108C222.087 55.2458 222.308 56.076 222.749 56.6014C223.191 57.1269 223.727 57.3896 224.368 57.3896C225.061 57.3896 225.639 57.1164 226.112 56.5804C226.585 56.0445 226.827 55.2458 226.827 54.1844C226.827 53.123 226.596 52.2612 226.144 51.7253C225.692 51.1893 225.114 50.9161 224.42 50.9161C223.727 50.9161 223.191 51.1788 222.749 51.7042C222.308 52.2297 222.087 53.0284 222.087 54.1108Z" fill="#4C4948"/>
<path d="M232.397 47.5531V44.9363H235.224V47.5531H232.397ZM232.397 59.67V48.9928H235.224V59.67H232.397Z" fill="#4C4948"/>
<path d="M243.011 49.0036V51.2525H241.077V55.5507C241.077 56.4229 241.098 56.9274 241.13 57.0745C241.161 57.2216 241.245 57.3372 241.382 57.4318C241.518 57.5264 241.676 57.5684 241.855 57.5684C242.117 57.5684 242.496 57.4738 242.99 57.2952L243.231 59.4811C242.58 59.7648 241.834 59.9014 241.004 59.9014C240.499 59.9014 240.037 59.8173 239.627 59.6492C239.217 59.4811 238.923 59.2604 238.723 58.9872C238.523 58.7139 238.397 58.3461 238.324 57.8837C238.261 57.5579 238.229 56.8959 238.229 55.8975V51.242H236.937V48.9931H238.229V46.8702L241.067 45.2203V48.9931H243L243.011 49.0036Z" fill="#4C4948"/>
<path d="M247.078 52.2612L244.513 51.7988C244.797 50.7689 245.302 50.0018 246.006 49.5079C246.71 49.0139 247.75 48.7617 249.137 48.7617C250.398 48.7617 251.334 48.9088 251.954 49.2136C252.574 49.5184 253.005 49.8862 253.257 50.3486C253.509 50.811 253.635 51.6517 253.635 52.8812L253.604 56.1811C253.604 57.1164 253.646 57.81 253.74 58.2514C253.835 58.6927 254.003 59.1761 254.245 59.6806H251.449C251.376 59.4914 251.281 59.2182 251.176 58.8504C251.134 58.6822 251.092 58.5771 251.071 58.5141C250.588 58.987 250.073 59.3338 249.526 59.565C248.98 59.7962 248.391 59.9118 247.771 59.9118C246.668 59.9118 245.806 59.6176 245.176 59.0185C244.545 58.4195 244.23 57.6734 244.23 56.7591C244.23 56.1601 244.377 55.6136 244.661 55.1512C244.944 54.6888 245.354 54.321 245.869 54.0688C246.384 53.8165 247.141 53.5959 248.118 53.4067C249.442 53.1545 250.356 52.9233 250.861 52.7131V52.4294C250.861 51.8829 250.724 51.5046 250.462 51.2734C250.199 51.0422 249.684 50.9266 248.948 50.9266C248.444 50.9266 248.055 51.0212 247.771 51.2208C247.488 51.4205 247.267 51.7673 247.088 52.2612H247.078ZM250.861 54.5522C250.504 54.6678 249.926 54.8149 249.137 54.983C248.349 55.1512 247.845 55.3193 247.603 55.477C247.235 55.7397 247.046 56.0655 247.046 56.4753C247.046 56.8852 247.193 57.211 247.487 57.5052C247.782 57.7995 248.16 57.9361 248.612 57.9361C249.116 57.9361 249.61 57.768 250.073 57.4317C250.42 57.1795 250.64 56.8642 250.745 56.4963C250.819 56.2546 250.861 55.7922 250.861 55.1197V54.5522Z" fill="#4C4948"/>
<path d="M256.42 59.67V44.9363H259.247V59.67H256.42Z" fill="#4C4948"/>
<path d="M278.269 54.2577L281.148 55.172C280.707 56.7798 279.971 57.9779 278.941 58.7555C277.911 59.5332 276.608 59.922 275.021 59.922C273.067 59.922 271.459 59.2495 270.198 57.9148C268.937 56.5802 268.306 54.7516 268.306 52.4291C268.306 49.9805 268.937 48.0679 270.208 46.7122C271.48 45.3565 273.14 44.6734 275.2 44.6734C277.008 44.6734 278.468 45.2094 279.593 46.2708C280.265 46.9013 280.77 47.8051 281.096 48.9821L278.153 49.6862C277.974 48.9191 277.617 48.3201 277.06 47.8787C276.503 47.4373 275.831 47.2166 275.042 47.2166C273.949 47.2166 273.067 47.6054 272.384 48.3936C271.701 49.1818 271.364 50.4429 271.364 52.1979C271.364 54.058 271.7 55.3926 272.373 56.1808C273.046 56.969 273.918 57.3683 274.99 57.3683C275.778 57.3683 276.461 57.1161 277.029 56.6117C277.596 56.1073 278.006 55.3191 278.258 54.2366L278.269 54.2577Z" fill="#4C4948"/>
<path d="M283.04 54.1844C283.04 53.2491 283.271 52.3348 283.733 51.4625C284.196 50.5903 284.847 49.9177 285.698 49.4553C286.55 48.9929 287.495 48.7617 288.536 48.7617C290.154 48.7617 291.478 49.2872 292.508 50.3381C293.538 51.389 294.053 52.7131 294.053 54.3105C294.053 55.9079 293.528 57.2635 292.487 58.3249C291.447 59.3864 290.133 59.9223 288.557 59.9223C287.58 59.9223 286.644 59.7016 285.762 59.2602C284.879 58.8188 284.196 58.1673 283.733 57.3161C283.271 56.4648 283.04 55.4244 283.04 54.1949V54.1844ZM285.93 54.3315C285.93 55.3929 286.182 56.2021 286.686 56.7591C287.191 57.3161 287.811 57.5998 288.546 57.5998C289.282 57.5998 289.902 57.3161 290.396 56.7591C290.89 56.2021 291.142 55.3824 291.142 54.3105C291.142 53.2386 290.89 52.4609 290.396 51.8934C289.902 51.3259 289.282 51.0527 288.546 51.0527C287.811 51.0527 287.191 51.3364 286.686 51.8934C286.182 52.4504 285.93 53.2701 285.93 54.321V54.3315Z" fill="#4C4948"/>
<path d="M296.26 59.6699V56.843H299.087V59.6699H296.26Z" fill="#4C4948"/>
<path d="M301.914 56.8535H304.741V58.8712C304.741 59.6909 304.667 60.332 304.53 60.8049C304.394 61.2778 304.121 61.6981 303.732 62.0764C303.343 62.4548 302.838 62.749 302.239 62.9592L301.682 61.7927C302.25 61.6035 302.66 61.3513 302.901 61.0151C303.143 60.6788 303.269 60.2374 303.28 59.6699H301.914V56.843V56.8535Z" fill="#4C4948"/>
<path d="M313.81 59.6704V45.0523H316.784V57.1798H324.182V59.6599H313.81V59.6704Z" fill="#4C4948"/>
<path d="M331.181 49.0036V51.2525H329.248V55.5507C329.248 56.4229 329.269 56.9274 329.3 57.0745C329.332 57.2216 329.416 57.3372 329.552 57.4318C329.689 57.5264 329.847 57.5684 330.025 57.5684C330.288 57.5684 330.666 57.4738 331.16 57.2952L331.402 59.4811C330.75 59.7648 330.004 59.9014 329.174 59.9014C328.67 59.9014 328.207 59.8173 327.797 59.6492C327.388 59.4811 327.093 59.2604 326.894 58.9872C326.694 58.7139 326.568 58.3461 326.494 57.8837C326.431 57.5579 326.4 56.8959 326.4 55.8975V51.242H325.107V48.9931H326.4V46.8702L329.237 45.2203V48.9931H331.171L331.181 49.0036Z" fill="#4C4948"/>
<path d="M342.931 59.6704H340.303V58.1046C339.873 58.7141 339.358 59.166 338.759 59.4707C338.16 59.7755 337.571 59.9226 336.962 59.9226C335.732 59.9226 334.681 59.4287 333.809 58.4409C332.937 57.453 332.495 56.0763 332.495 54.3003C332.495 52.5243 332.926 51.1161 333.767 50.1703C334.608 49.2244 335.69 48.762 336.993 48.762C338.181 48.762 339.221 49.256 340.093 50.2543V44.9473H342.92V59.6809L342.931 59.6704ZM335.396 54.1006C335.396 55.2356 335.553 56.0658 335.869 56.5702C336.321 57.3059 336.962 57.6737 337.781 57.6737C338.433 57.6737 338.979 57.4005 339.442 56.8435C339.904 56.2865 340.125 55.4668 340.125 54.3633C340.125 53.1338 339.904 52.251 339.463 51.7151C339.021 51.1791 338.454 50.9059 337.76 50.9059C337.067 50.9059 336.531 51.1686 336.079 51.7046C335.627 52.2405 335.396 53.0287 335.396 54.0901V54.1006Z" fill="#4C4948"/>
<path d="M345.716 59.6699V56.843H348.543V59.6699H345.716Z" fill="#4C4948"/>
<path d="M102.095 14.2397C104.586 21.8798 109.241 28.2273 116.314 31.2959C115.347 32.4834 113.823 34.4066 112.951 35.489C105.994 32.0525 101.643 25.9993 98.7323 18.1701C97.8601 21.0391 95.6742 25.2112 95.6742 25.2112C97.9442 27.2184 101.265 30.5287 102.589 32.4624L98.5852 35.3734C97.4923 33.6289 95.0647 31.0227 92.9524 28.9104C90.6404 31.443 87.6558 33.713 83.799 35.489C82.8427 34.4066 81.8969 33.3451 80.4361 31.6742C89.7366 27.6703 93.3622 21.0916 94.7704 14.2397H81.5711V9.59475H95.4115C95.6217 6.28441 95.6742 3.08967 95.7163 0.220703H100.666C100.624 3.1317 100.634 6.18983 100.561 9.59475H115.295V14.2397H102.095Z" fill="#4C4948"/>
<path d="M128.925 10.7926L128.883 9.32129C127.559 10.3407 126.234 11.2444 124.837 12.0431H140.789V23.9183H127.674C127.601 24.2967 127.559 24.717 127.485 25.0953H140.863V29.2359C140.863 32.5252 138.194 35.1945 134.904 35.1945H127.023V27.5229C126.497 29.9085 125.699 32.2099 124.606 34.1436C123.639 33.7443 121.779 32.9141 120.675 32.4412C123.66 27.5965 123.965 20.8707 123.965 16.4149V12.6001L123.092 13.052C122.672 11.9906 121.505 9.72064 120.749 8.7433C125.131 6.89371 129.555 3.79355 131.972 0.157422L136.092 1.78632C135.861 2.12261 135.64 2.42737 135.409 2.73213C138.204 4.36103 141.346 6.21062 143.08 7.46119L140.779 11.2444C139.76 10.4142 138.288 9.42638 136.659 8.37547V10.8346H128.904L128.925 10.7926ZM136.712 20.8077V19.2628H128.053C128.053 19.7568 128.01 20.2822 127.979 20.8077H136.712ZM128.126 15.1328V16.604H136.712V15.1328H128.126ZM136.407 8.13377C135.199 7.37712 133.948 6.58894 132.813 5.86382C132.014 6.62047 131.184 7.41916 130.354 8.13377H136.407ZM130.774 28.1324V31.9893H133.959C135.609 31.9893 136.933 30.6546 136.933 29.0152V28.143H130.774V28.1324ZM148.051 27.1236H143.816V4.05626H148.051V27.1236ZM154.966 0.273022V30.0661C154.966 32.4832 154.598 33.5761 153.117 34.4168C151.635 35.2576 148.324 35.3206 144.867 35.3206C144.625 33.986 144.394 32.3991 144.173 30.8228C146.17 30.9594 149.144 31.0119 149.785 30.8648C150.374 30.7282 150.657 30.6756 150.657 30.0346V0.283525H154.966V0.273022Z" fill="#4C4948"/>
<path d="M194.028 11.0978C193.387 16.615 192.294 21.2285 190.508 25.0537C192.094 28.0383 194.249 30.4238 197.013 31.9371C196.193 32.925 195.089 34.2491 194.175 35.4156C191.716 33.7867 189.751 31.6009 188.196 28.879C186.157 31.6744 183.508 33.8708 180.03 35.6048C179.799 35.1109 179.315 34.2071 178.779 33.4084L177.644 34.4278C176.436 33.7132 174.881 32.9565 173.105 32.2314C170.793 33.5555 167.43 34.6905 162.669 35.4787C162.154 34.659 161.524 33.545 160.925 32.5677C164.33 32.0422 166.862 31.3907 168.827 30.6025C167.062 29.993 165.864 29.5726 164.193 29.0577C164.792 27.9753 165.118 27.3762 165.685 26.1887H161.681V23.1621H167.619C167.955 22.5946 168.26 22.0271 168.523 21.4596H163.268V14.7654H169.962V13.6725H163.909V9.51088H161.303V6.33715H163.909V2.43831H169.962V0.168359H173.367V2.43831H179.872V6.33715H181.838V9.51088H179.872V13.6725H173.367V14.7654H180.398V16.2787C182.479 12.0856 184.023 6.0324 184.969 0.168359L188.679 0.851456C188.343 2.93224 187.985 4.97099 187.491 7.16738H196.54V11.0978H194.007H194.028ZM166.999 18.9585H169.983V17.2981H166.999V18.9585ZM167.262 5.23372V6.55785H169.983V5.23372H167.262ZM169.983 10.8245V9.26918H167.262V10.8245H169.983ZM169.794 26.1782C169.531 26.6301 169.227 27.0505 168.964 27.4603C170.173 27.7966 171.381 28.1434 172.558 28.5532C173.546 27.7966 174.145 26.9664 174.523 26.1677H169.794V26.1782ZM178.264 26.1782C177.96 27.4288 177.361 28.7109 176.226 29.9194C177.434 30.4449 178.611 30.9388 179.662 31.4327C182.615 29.8038 184.77 27.6915 186.388 24.9276C185.484 22.5841 184.759 19.9779 184.16 17.1404C183.666 18.3175 183.141 19.4104 182.615 20.3562C181.901 19.6206 181.228 18.9165 180.419 18.1283V21.4596H172.474C172.211 22.0271 171.907 22.5946 171.602 23.1621H174.965V21.2074H178.485V23.1621H181.627V26.1887H178.264V26.1782ZM173.388 5.23372V6.55785H176.341V5.23372H173.388ZM176.341 10.8245V9.26918H173.388V10.8245H176.341ZM173.388 17.2876V18.948H176.488V17.2876H173.388ZM186.314 11.0872C186.808 14.3345 187.523 17.4347 188.469 20.1986C189.299 17.5503 189.835 14.5237 190.171 11.0872H186.314Z" fill="#4C4948"/>
<path d="M214.048 1.64956C213.06 4.22427 211.893 6.83052 210.527 9.28963V35.4151H205.987V16.3622C205.189 17.35 204.401 18.2854 203.602 19.1576C202.961 17.9386 201.91 15.7947 201.185 14.4706C204.59 11.0656 207.879 5.69554 209.802 0.32543L214.037 1.64956H214.048ZM236.054 34.0174H212.345V29.6666H225.503C226.785 24.7484 228.077 17.4131 228.603 11.9694L233.29 12.684C232.344 18.3589 230.946 24.9376 229.622 29.6561H236.054V34.0174ZM234.772 6.52575V10.8765H213.712V6.52575H234.772ZM222.266 7.01968V0.0101562H226.617V7.01968H222.266ZM218.178 28.6052C217.537 24.5908 216.623 18.2959 215.95 12.9888L220.038 12.085C220.879 17.3816 221.835 23.5083 222.613 27.3546L218.188 28.6052H218.178Z" fill="#4C4948"/>
<path d="M255.558 8.9429C255.138 9.96227 254.612 10.9501 254.045 11.9275H271.626V30.602C271.626 32.8299 271.206 34.0385 269.661 34.7215C268.19 35.4362 266.036 35.4782 262.967 35.4782C262.589 34.2907 262.032 32.5041 261.601 31.1275C263.524 31.2431 265.72 31.2431 266.361 31.2431C267.003 31.201 267.234 31.0119 267.234 30.4864V28.2164H253.015C252.374 31.0539 251.165 33.7757 248.822 35.7409C248.044 34.9317 246.394 33.1767 245.575 32.3045C248.822 29.467 249.095 25.421 249.095 21.911V18.8529C247.655 20.3662 246.142 21.7639 244.408 22.9724C243.641 22.0266 242.296 20.4923 241.455 19.494C245.27 16.9613 248.296 13.1465 250.524 8.9429H242.317V4.70776H252.448C253.057 3.16293 253.54 1.64963 253.961 0.136328L258.616 1.19773C258.238 2.37475 257.818 3.54125 257.408 4.71826H275.862V8.9534H255.558V8.9429ZM267.244 24.4857V22.0266H253.667C253.667 22.8253 253.625 23.6135 253.593 24.4857H267.244ZM267.244 15.8999H253.667V18.2854H267.244V15.8999Z" fill="#4C4948"/>
<path d="M295.167 1.68148C294.473 5.22302 293.759 9.6158 292.434 13.0628C294.704 16.0158 294.778 18.6956 294.778 20.9235C294.778 23.3406 294.284 24.9695 293.076 25.8733C292.508 26.3252 291.793 26.5563 290.963 26.7035C290.28 26.8191 287.012 26.7981 286.108 26.7875C286.108 25.6946 285.73 24.0237 285.12 22.9307C286.224 23.0568 288.725 23.0043 289.145 22.9623C289.524 22.9623 289.902 22.8887 290.165 22.6575C290.616 22.3212 290.848 21.4805 290.848 20.4296C290.848 18.58 290.743 16.1524 288.588 13.5146C289.324 10.8243 289.944 8.29166 290.364 5.65389H286.697V35.4049H282.766V1.63945L295.177 1.68148H295.167ZM315.68 22.5944C313.989 23.8871 312.128 25.2427 310.384 26.4092C311.971 28.5636 314.01 30.3396 316.511 31.4746C315.607 32.6621 314.409 34.1754 313.526 35.3734C307.967 31.7268 304.656 26.4513 302.88 19.0424H300.821V29.9613L305.361 29.1206C305.739 30.4867 306.17 32.2207 306.443 33.3031C299.076 34.8795 297.805 35.1317 296.396 35.4155C296.354 34.2385 296.396 1.69199 296.396 1.69199H313.484V19.0424H306.947C307.368 20.5137 307.851 21.8798 308.461 23.1619C310.09 21.9009 311.687 20.6187 312.938 19.5784L315.691 22.5944H315.68ZM300.821 5.53829V8.49133H309.144V5.53829H300.821ZM300.821 15.1435H309.144V12.1169H300.821V15.1435Z" fill="#4C4948"/>
<path d="M337.235 2.62737C334.471 8.82769 330.047 15.2592 325.969 19.1896C324.897 18.1912 323.132 16.4993 321.965 15.3328C325.969 11.9699 329.942 6.48419 332.212 1.00898L337.235 2.63789V2.62737ZM347.817 19.9778C350.876 24.1394 354.354 29.5095 356.214 33.0195L351.559 35.4786C351.065 34.4172 350.382 33.1351 349.593 31.7689C337.308 33.0405 332.369 33.5344 329.71 33.8182C328.071 33.9968 326.516 33.051 325.896 31.5167C325.896 31.4957 325.875 31.4747 325.875 31.4536C325.36 30.1715 325.622 28.7108 326.526 27.6704C329.521 24.2444 335.427 17.0458 338.139 11.9594L343.393 14.1873C340.482 19.2947 336.857 24.318 333.189 28.406L347.061 27.5022C345.852 25.6106 344.602 23.6454 343.435 21.985L347.817 19.9778ZM348.532 1.07204C350.161 6.36859 353.639 11.6967 358.253 14.5341C357.339 15.6901 355.752 17.7919 354.848 19.074C350.539 15.7847 347.176 10.7193 345.054 5.72754H339V1.07204H348.532Z" fill="#4C4948"/>
<path d="M393.216 29.7719C393.216 32.3466 392.764 33.7022 391.135 34.5009C389.37 35.3732 382.707 35.3732 382.707 35.3732C382.707 35.3732 381.982 32.1154 381.677 30.497C383.789 30.6441 386.942 30.6126 387.657 30.5706C388.34 30.5706 388.603 30.3814 388.603 29.7403V6.71506H362.214V2.43789H393.216V29.7719ZM384.819 13.3252H362.593V9.39486H384.819V13.3252ZM364.589 28.8261V16.1206H382.854V22.92C382.854 26.2198 380.174 28.8891 376.875 28.8786L364.589 28.8261ZM368.909 19.9775V25.0428H375.456C377.106 25.0428 378.43 23.7082 378.43 22.0687V19.9775H368.898H368.909Z" fill="#4C4948"/>
</svg>
