<svg width="160" height="160" viewBox="0 0 160 160" fill="none" xmlns="http://www.w3.org/2000/svg">
<g clip-path="url(#clip0_118_161)">
<path d="M80 160C124.183 160 160 124.183 160 80C160 35.8172 124.183 0 80 0C35.8172 0 0 35.8172 0 80C0 124.183 35.8172 160 80 160Z" fill="#2660AD"/>
<path d="M152 94.74C152 99.16 148.41 102.74 144 102.74C141.32 102.74 138.95 101.42 137.5 99.4V136.94C136.53 137.95 135.53 138.93 134.5 139.88V99.4C133.05 101.42 130.67 102.74 128 102.74C123.58 102.74 120 99.16 120 94.74C120 99.16 116.41 102.74 112 102.74C108.09 102.74 104.84 99.94 104.14 96.23C104.16 96.24 104.19 96.23 104.21 96.23C104.96 96.13 105.5 95.48 105.5 94.74C105.5 94.68 105.5 94.61 105.49 94.54L103.47 79.85L103.06 76.85L100.04 54.81L99.62 51.81L98.93 46.74H118.5V33.31C118.5 31.93 117.38 30.81 116 30.81H44C42.62 30.81 41.5 31.93 41.5 33.31V46.74H61.08L60.39 51.81L59.97 54.81L56.95 76.85L56.54 79.85L54.52 94.54C54.52 94.6 54.5 94.67 54.5 94.74C54.49 95.48 55.05 96.13 55.8 96.23C55.82 96.23 55.84 96.24 55.86 96.23C55.16 99.94 51.9 102.74 48 102.74C43.58 102.74 40 99.16 40 94.74C40 99.16 36.41 102.74 32 102.74C29.32 102.74 26.95 101.42 25.5 99.4V139.88C24.47 138.93 23.47 137.95 22.5 136.94V99.4C21.05 101.42 18.67 102.74 16 102.74C11.58 102.74 8 99.16 8 94.74L26.75 49.22C27.37 47.72 28.83 46.74 30.45 46.74H37.81L28.16 76.85L27.2 79.85L25.5 85.15L22.57 94.29C22.52 94.44 22.5 94.59 22.5 94.74C22.5 95.38 22.9 95.97 23.54 96.17C23.65 96.2 23.76 96.23 23.86 96.23C23.91 96.24 23.95 96.24 24 96.24C24.05 96.24 24.09 96.24 24.14 96.23C24.72 96.18 25.24 95.79 25.43 95.2L25.5 94.98L25.58 94.74L30.35 79.85L31.31 76.85L39.25 52.07L40.81 47.2C40.86 47.05 40.88 46.89 40.88 46.74H38.5V33.31C38.5 30.28 40.97 27.81 44 27.81H116C119.03 27.81 121.5 30.28 121.5 33.31V46.74H119.13C119.13 46.89 119.15 47.05 119.2 47.2L120.75 52.06L128.69 76.85L129.65 79.85L134.42 94.74L134.5 94.98L134.57 95.2C134.76 95.79 135.28 96.18 135.86 96.23C135.9 96.24 135.95 96.24 136 96.24C136.05 96.24 136.09 96.24 136.14 96.23C136.25 96.23 136.36 96.2 136.46 96.17C137.1 95.97 137.5 95.38 137.5 94.75C137.5 94.59 137.48 94.44 137.43 94.29L134.5 85.15L132.8 79.85L131.84 76.85L122.19 46.74H129.55C131.17 46.74 132.63 47.72 133.25 49.22L152 94.74Z" fill="white"/>
<path d="M92 121.84H68C64.97 121.84 62.5 124.31 62.5 127.34V159.39C63.49 159.62 64.49 159.82 65.5 160V127.34C65.5 125.97 66.62 124.84 68 124.84H92C93.38 124.84 94.5 125.97 94.5 127.34V160C95.51 159.82 96.51 159.62 97.5 159.39V127.34C97.5 124.31 95.03 121.84 92 121.84Z" fill="white"/>
<path d="M25.58 94.74L25.5 94.98V94.74H25.58Z" fill="white"/>
<path d="M103.86 96.23C103.16 99.94 99.8999 102.74 95.9999 102.74C91.5799 102.74 87.9999 99.16 87.9999 94.74C87.9999 99.16 84.4099 102.74 79.9999 102.74C75.5899 102.74 71.9999 99.16 71.9999 94.74C71.9999 99.16 68.4099 102.74 63.9999 102.74C60.0899 102.74 56.8399 99.94 56.1399 96.23C56.8199 96.17 57.3899 95.65 57.4899 94.95L57.5199 94.74L59.5599 79.85L59.9699 76.85L62.9999 54.81L63.4099 51.81L64.0799 46.95C64.0899 46.88 64.0899 46.81 64.0899 46.74H95.9099C95.9099 46.82 95.9199 46.88 95.9299 46.95L96.5999 51.81L97.0099 54.81L100.04 76.85L100.45 79.85L102.49 94.74L102.52 94.95C102.61 95.65 103.18 96.17 103.86 96.23Z" fill="white"/>
<path d="M25.58 94.74L25.5 94.98V94.74H25.58Z" fill="#2660AD"/>
<path d="M69.78 39.78C69.59 39.47 69.32 39.23 68.99 39.05C68.65 38.87 68.13 38.7 67.43 38.53C66.72 38.37 66.28 38.21 66.1 38.06C65.96 37.94 65.88 37.79 65.88 37.62C65.88 37.44 65.96 37.29 66.11 37.18C66.35 37 66.68 36.92 67.1 36.92C67.52 36.92 67.81 37 68.02 37.16C68.22 37.32 68.35 37.59 68.41 37.95L69.86 37.89C69.84 37.23 69.6 36.71 69.14 36.31C68.69 35.92 68.01 35.72 67.12 35.72C66.57 35.72 66.1 35.8 65.71 35.97C65.32 36.14 65.02 36.38 64.81 36.7C64.61 37.01 64.5 37.35 64.5 37.72C64.5 38.29 64.72 38.77 65.16 39.16C65.47 39.44 66.02 39.68 66.79 39.87C67.4 40.02 67.78 40.12 67.95 40.18C68.2 40.27 68.37 40.37 68.47 40.49C68.57 40.61 68.62 40.75 68.62 40.92C68.62 41.19 68.5 41.42 68.27 41.61C68.03 41.81 67.68 41.91 67.21 41.91C66.77 41.91 66.42 41.8 66.17 41.58C65.91 41.36 65.73 41.01 65.65 40.54L64.24 40.67C64.34 41.47 64.63 42.08 65.11 42.5C65.6 42.92 66.29 43.13 67.2 43.13C67.82 43.13 68.34 43.04 68.76 42.87C69.17 42.69 69.49 42.43 69.72 42.07C69.95 41.71 70.06 41.33 70.06 40.92C70.06 40.46 69.97 40.08 69.78 39.78Z" fill="white"/>
<path d="M77.1899 35.84V38.66H74.3599V35.84H72.9099V43H74.3599V39.87H77.1899V43H78.6399V35.84H77.1899Z" fill="white"/>
<path d="M86.9199 36.7C86.2799 36.05 85.4399 35.72 84.3899 35.72C83.7999 35.72 83.2899 35.82 82.8399 36.01C82.5099 36.15 82.1999 36.36 81.9199 36.65C81.6399 36.94 81.4099 37.27 81.2499 37.63C81.0299 38.13 80.9199 38.74 80.9199 39.47C80.9199 40.61 81.2399 41.5 81.8699 42.15C82.4899 42.8 83.3399 43.12 84.4099 43.12C85.4799 43.12 86.2999 42.8 86.9199 42.15C87.5499 41.49 87.8699 40.59 87.8699 39.43C87.8699 38.27 87.5499 37.36 86.9199 36.7ZM85.8199 41.27C85.4499 41.68 84.9799 41.89 84.3999 41.89C83.8199 41.89 83.3499 41.68 82.9699 41.26C82.5999 40.84 82.4099 40.23 82.4099 39.42C82.4099 38.61 82.5999 37.98 82.9599 37.57C83.3199 37.16 83.7999 36.96 84.3999 36.96C84.9999 36.96 85.4699 37.16 85.8299 37.56C86.1899 37.97 86.3699 38.58 86.3699 39.4C86.3699 40.22 86.1899 40.85 85.8199 41.27Z" fill="white"/>
<path d="M95.34 36.65C95.07 36.29 94.72 36.06 94.31 35.95C94.05 35.88 93.47 35.84 92.59 35.84H90.27V43H91.72V40.3H92.66C93.32 40.3 93.82 40.27 94.16 40.2C94.42 40.14 94.67 40.03 94.91 39.86C95.16 39.69 95.36 39.45 95.52 39.15C95.68 38.86 95.76 38.49 95.76 38.05C95.76 37.48 95.62 37.01 95.34 36.65ZM94.11 38.62C94 38.78 93.85 38.9 93.65 38.97C93.46 39.05 93.08 39.09 92.51 39.09H91.72V37.05H92.42C92.94 37.05 93.29 37.07 93.46 37.1C93.69 37.15 93.89 37.25 94.04 37.42C94.19 37.59 94.27 37.81 94.27 38.07C94.27 38.28 94.21 38.46 94.11 38.62Z" fill="white"/>
</g>
<defs>
<clipPath id="clip0_118_161">
<rect width="160" height="160" fill="white"/>
</clipPath>
</defs>
</svg>
