<svg width="160" height="160" viewBox="0 0 160 160" fill="none" xmlns="http://www.w3.org/2000/svg">
<g clip-path="url(#clip0_125_235)">
<path d="M80 160C124.183 160 160 124.183 160 80C160 35.8172 124.183 0 80 0C35.8172 0 0 35.8172 0 80C0 124.183 35.8172 160 80 160Z" fill="#2660AD"/>
<path d="M125.5 35.67V146.23C125.01 146.58 124.51 146.92 124 147.25C123.51 147.58 123.01 147.9 122.5 148.21V35.67C122.5 34.29 121.38 33.17 120 33.17H95.98C95.99 33.28 96 33.4 96 33.51V36.24C96 37.7 94.82 38.88 93.37 38.88H66.64C65.18 38.88 64 37.7 64 36.24V33.51C64 33.4 64.01 33.28 64.02 33.17H40C38.62 33.17 37.5 34.29 37.5 35.67V148.21C36.99 147.9 36.49 147.58 36 147.25C35.49 146.92 34.99 146.58 34.5 146.23V35.67C34.5 32.64 36.97 30.17 40 30.17H120C123.04 30.17 125.5 32.64 125.5 35.67Z" fill="white"/>
<path d="M76.6999 79.95C76.6999 85.83 74.6099 91.18 71.3699 93.81C68.4999 96.13 66.7199 98.58 66.8099 102.27L68.2499 159.57C64.8199 159.07 61.4599 158.34 58.1899 157.41L59.5599 102.27C59.6599 98.58 57.8799 96.13 55.0099 93.81C51.7699 91.18 49.6699 85.83 49.6699 79.95C49.6699 69.93 55.7199 59.42 63.1899 59.42C70.6599 59.42 76.6999 69.93 76.6999 79.95Z" fill="white"/>
<path d="M105.64 94.92C102.84 97.12 101.4 99.68 101.49 103.23L102.84 157.11C99.5701 158.09 96.2201 158.86 92.7901 159.41L94.1901 103.23C94.2801 99.68 92.8301 97.13 90.0401 94.93C86.9401 92.49 85.0101 86.88 85.3901 82.82L87.5301 60.69C87.5901 59.99 88.1801 59.45 88.8801 59.45C90.0801 59.45 91.0101 60.45 90.9401 61.65L89.7801 80.69C89.7201 81.78 90.4101 82.67 91.3301 82.67C92.2501 82.67 93.0301 81.78 93.0701 80.69L93.7801 60.75C93.8001 60.02 94.4001 59.45 95.1201 59.45C95.8401 59.45 96.4501 60.05 96.4401 60.79L96.2001 80.69C96.1801 81.78 96.9201 82.67 97.8401 82.67C98.7601 82.67 99.4901 81.78 99.4701 80.69L99.2401 60.79C99.2301 60.05 99.8201 59.45 100.55 59.45C101.28 59.45 101.87 60.02 101.89 60.74L102.61 80.69C102.65 81.78 103.42 82.67 104.34 82.67C105.26 82.67 105.95 81.78 105.89 80.69L104.73 61.65C104.66 60.45 105.59 59.45 106.79 59.45H106.8C107.5 59.45 108.09 59.99 108.15 60.69L110.29 82.82C110.66 86.88 108.73 92.49 105.64 94.92Z" fill="white"/>
</g>
<defs>
<clipPath id="clip0_125_235">
<rect width="160" height="160" fill="white"/>
</clipPath>
</defs>
</svg>
