<svg width="25" height="24" viewBox="0 0 25 24" fill="none" xmlns="http://www.w3.org/2000/svg">
<path fill-rule="evenodd" clip-rule="evenodd" d="M12.6665 0C19.2939 0 24.6665 5.37258 24.6665 12C24.6665 18.6274 19.2939 24 12.6665 24C6.03909 24 0.666504 18.6274 0.666504 12C0.666504 5.37258 6.03909 0 12.6665 0ZM6.33462 6.66767C7.60399 6.33783 12.6615 6.33783 12.6615 6.33783C12.6615 6.33783 17.729 6.33785 18.9984 6.68767C19.688 6.86759 20.2377 7.41723 20.4176 8.10689C20.7674 9.37626 20.7574 12.015 20.7574 12.015C20.7574 12.015 20.7574 14.6438 20.4176 15.9031C20.2377 16.6028 19.688 17.1425 18.9984 17.3324C17.729 17.6622 12.6615 17.6622 12.6615 17.6622C12.6615 17.6622 7.61399 17.6622 6.33462 17.3224C5.64497 17.1325 5.09531 16.5828 4.90541 15.8931C4.57557 14.6438 4.57556 12.005 4.57556 12.005C4.57556 12.005 4.57557 9.37626 4.90541 8.10689C5.09531 7.41723 5.65496 6.85758 6.33462 6.66767ZM15.2602 12.005L11.0523 9.57627V14.4238L15.2602 12.005Z" fill="#4C4948"/>
</svg>
