<svg width="25" height="24" viewBox="0 0 25 24" fill="none" xmlns="http://www.w3.org/2000/svg">
<path fill-rule="evenodd" clip-rule="evenodd" d="M0.666504 12C0.666504 5.37258 6.03909 0 12.6665 0C19.2939 0 24.6665 5.37258 24.6665 12C24.6665 18.6274 19.2939 24 12.6665 24C6.03909 24 0.666504 18.6274 0.666504 12ZM20.2665 11.5619C20.2665 8.27448 16.947 5.6 12.8664 5.6C8.78643 5.6 5.4665 8.27448 5.4665 11.5619C5.4665 14.509 8.09912 16.9772 11.6552 17.4439C11.8963 17.4954 12.2242 17.6016 12.3072 17.8061C12.3818 17.9919 12.356 18.2829 12.3311 18.4704C12.3311 18.4704 12.2442 18.9889 12.2255 19.0993C12.1933 19.285 12.0768 19.8257 12.8664 19.4953C13.6563 19.1649 17.1282 17.0041 18.6807 15.2299C19.7531 14.0624 20.2665 12.8776 20.2665 11.5619Z" fill="#4C4948"/>
<path fill-rule="evenodd" clip-rule="evenodd" d="M11.3237 10H10.8094C10.7306 10 10.6665 10.0662 10.6665 10.1474V13.4526C10.6665 13.534 10.7306 13.6 10.8094 13.6H11.3237C11.4026 13.6 11.4665 13.534 11.4665 13.4526V10.1474C11.4665 10.0662 11.4026 10 11.3237 10Z" fill="#4C4948"/>
<path fill-rule="evenodd" clip-rule="evenodd" d="M14.9162 10H14.3748C14.2918 10 14.2245 10.0662 14.2245 10.1474V12.111L12.6834 10.0656C12.6798 10.0603 12.6758 10.0554 12.6717 10.0506L12.6706 10.0497C12.6677 10.0464 12.6647 10.0435 12.6616 10.0406C12.6607 10.0397 12.6598 10.039 12.6588 10.0381C12.6563 10.0358 12.6536 10.0336 12.6508 10.0316C12.6496 10.0304 12.6483 10.0295 12.647 10.0285C12.6443 10.0268 12.6418 10.0249 12.6391 10.0233C12.6377 10.0222 12.6362 10.0214 12.6345 10.0206C12.6319 10.019 12.6292 10.0174 12.6266 10.0161C12.6249 10.0154 12.6234 10.0145 12.6218 10.014C12.619 10.0127 12.6162 10.0113 12.6132 10.0103C12.6115 10.0097 12.61 10.0092 12.6084 10.0086C12.6054 10.0076 12.6024 10.0065 12.5993 10.0058C12.5977 10.0052 12.5959 10.0049 12.5942 10.0044C12.5912 10.0038 12.5884 10.0031 12.5856 10.0025C12.5835 10.0022 12.5813 10.0019 12.5792 10.0017C12.5765 10.0012 12.5739 10.001 12.5712 10.0007C12.5687 10.0004 12.5662 10.0004 12.5635 10.0003C12.5616 10.0003 12.5601 10 12.5582 10H12.017C11.934 10 11.8665 10.0662 11.8665 10.1474V13.4526C11.8665 13.534 11.934 13.6 12.017 13.6H12.5582C12.6414 13.6 12.7087 13.534 12.7087 13.4526V11.4896L14.2517 13.5376C14.2624 13.5525 14.2755 13.5645 14.2899 13.5741C14.2903 13.5744 14.2909 13.5748 14.2914 13.5753C14.2945 13.5772 14.2976 13.5791 14.3007 13.5808C14.3022 13.5817 14.3035 13.5823 14.305 13.583C14.3072 13.5843 14.3097 13.5855 14.3121 13.5865C14.3146 13.5875 14.3168 13.5885 14.3195 13.5895C14.321 13.5901 14.3224 13.5907 14.3239 13.5911C14.3275 13.5924 14.3307 13.5935 14.3341 13.5945C14.3349 13.5945 14.3356 13.5948 14.3363 13.5949C14.3486 13.5981 14.3615 13.6 14.3748 13.6H14.9162C14.9993 13.6 15.0665 13.534 15.0665 13.4526V10.1474C15.0665 10.0662 14.9993 10 14.9162 10Z" fill="#4C4948"/>
<path fill-rule="evenodd" clip-rule="evenodd" d="M10.1203 12.7724H8.68698V10.1477C8.68698 10.0662 8.62138 10 8.54064 10H8.01298C7.9321 10 7.8665 10.0662 7.8665 10.1477V13.4521C7.8665 13.4918 7.88222 13.528 7.90745 13.5545C7.90802 13.5552 7.9086 13.5559 7.90947 13.5567C7.91019 13.5574 7.91091 13.558 7.91163 13.5587C7.93801 13.5843 7.97348 13.6 8.01284 13.6H10.1203C10.2012 13.6 10.2665 13.5337 10.2665 13.4521V12.9201C10.2665 12.8385 10.2012 12.7724 10.1203 12.7724Z" fill="#4C4948"/>
<path fill-rule="evenodd" clip-rule="evenodd" d="M17.7203 10.8276C17.8012 10.8276 17.8665 10.7616 17.8665 10.6799V10.1479C17.8665 10.0663 17.8012 10 17.7203 10H15.613C15.5735 10 15.5376 10.016 15.5112 10.0417C15.5106 10.0423 15.5099 10.0427 15.5095 10.0433C15.5086 10.0442 15.5079 10.0451 15.5072 10.0459C15.4821 10.0724 15.4665 10.1082 15.4665 10.1477V13.4523C15.4665 13.492 15.4822 13.528 15.5074 13.5545C15.508 13.5552 15.5087 13.5561 15.5095 13.5567C15.51 13.5574 15.5109 13.5581 15.5116 13.5587C15.5379 13.5842 15.5735 13.6 15.6127 13.6H17.7203C17.8012 13.6 17.8665 13.5337 17.8665 13.4523V12.9201C17.8665 12.8387 17.8012 12.7724 17.7203 12.7724H16.2871V12.2137H17.7203C17.8012 12.2137 17.8665 12.1476 17.8665 12.066V11.534C17.8665 11.4524 17.8012 11.3861 17.7203 11.3861H16.2871V10.8276H17.7203Z" fill="#4C4948"/>
</svg>
