<svg width="154" height="40" viewBox="0 0 154 40" fill="none" xmlns="http://www.w3.org/2000/svg">
<g id="Group 2">
<path id="Vector" d="M53.1631 37.5489V30.6525H50.6987V29.2481H57.2969V30.6525H54.8392V37.5489H53.1631Z" fill="white"/>
<path id="Vector_2" d="M58.695 33.3687L57.2509 33.1103C57.4098 32.5273 57.6947 32.0967 58.0922 31.8185C58.4897 31.5402 59.0793 31.4011 59.861 31.4011C60.5698 31.4011 61.0998 31.4872 61.4443 31.6529C61.7888 31.8185 62.0339 32.0371 62.1796 32.2955C62.3254 32.5538 62.3916 33.0308 62.3916 33.7198L62.3718 35.5747C62.3718 36.1047 62.3982 36.4955 62.4512 36.7473C62.5042 36.999 62.597 37.2706 62.7361 37.5555H61.1594C61.1197 37.4495 61.0667 37.2905 61.0071 37.0851C60.9806 36.9924 60.9607 36.9261 60.9474 36.8996C60.6758 37.1646 60.3843 37.3634 60.073 37.4959C59.7616 37.6284 59.4304 37.6946 59.0793 37.6946C58.4632 37.6946 57.9729 37.529 57.6152 37.1911C57.2575 36.8532 57.0786 36.4293 57.0786 35.9192C57.0786 35.5813 57.1581 35.2766 57.3237 35.0116C57.4893 34.7466 57.7146 34.5412 58.0061 34.4021C58.2976 34.263 58.7215 34.1371 59.2714 34.0311C60.0134 33.892 60.5301 33.7595 60.8149 33.6403V33.4813C60.8149 33.1766 60.7421 32.9579 60.5897 32.8254C60.4373 32.6929 60.1525 32.6333 59.7351 32.6333C59.4503 32.6333 59.2316 32.6863 59.0726 32.7989C58.9137 32.9116 58.7878 33.1037 58.6884 33.3819L58.695 33.3687ZM60.8216 34.6605C60.6162 34.7267 60.2982 34.8129 59.8544 34.9056C59.4105 34.9983 59.1256 35.0911 58.9865 35.1838C58.7812 35.3296 58.6752 35.5151 58.6752 35.7469C58.6752 35.9788 58.7613 36.1643 58.9269 36.3233C59.0925 36.4823 59.3045 36.5684 59.5629 36.5684C59.8477 36.5684 60.126 36.4756 60.3843 36.2835C60.5765 36.1378 60.7023 35.9656 60.7619 35.7602C60.8017 35.6211 60.8216 35.3627 60.8216 34.9851V34.6671V34.6605Z" fill="white"/>
<path id="Vector_3" d="M63.9614 30.7188V29.2481H65.5514V30.7188H63.9614ZM63.9614 37.5489V31.5336H65.5514V37.5489H63.9614Z" fill="white"/>
<path id="Vector_4" d="M77.5423 34.5015L79.1653 35.0182C78.9136 35.9258 78.5029 36.5949 77.9199 37.0388C77.3369 37.4826 76.6082 37.7012 75.7139 37.7012C74.6142 37.7012 73.7066 37.3236 72.9977 36.5684C72.2889 35.8132 71.9312 34.7864 71.9312 33.4813C71.9312 32.0967 72.2889 31.0235 73.0044 30.2617C73.7198 29.4999 74.6539 29.1156 75.8199 29.1156C76.8334 29.1156 77.6615 29.4137 78.2975 30.0166C78.6751 30.3743 78.96 30.8778 79.1455 31.5469L77.4893 31.9444C77.3899 31.5138 77.1845 31.1759 76.8732 30.9242C76.5618 30.6724 76.1842 30.5532 75.7404 30.5532C75.1243 30.5532 74.6274 30.7718 74.2432 31.2157C73.8589 31.6595 73.6668 32.375 73.6668 33.3621C73.6668 34.4088 73.8589 35.1574 74.2299 35.6078C74.6009 36.0583 75.0978 36.2769 75.7006 36.2769C76.1445 36.2769 76.5287 36.1378 76.8533 35.8529C77.1779 35.5681 77.4032 35.1242 77.5423 34.5148V34.5015Z" fill="white"/>
<path id="Vector_5" d="M82.1796 29.2481V32.3021C82.6897 31.6992 83.3058 31.4011 84.0212 31.4011C84.3856 31.4011 84.7168 31.4674 85.0149 31.6065C85.313 31.7456 85.5317 31.9179 85.6774 32.1298C85.8232 32.3418 85.9291 32.5737 85.9821 32.8321C86.0351 33.0904 86.0616 33.4879 86.0616 34.0245V37.5555H84.4717V34.3756C84.4717 33.7463 84.4386 33.3422 84.379 33.1765C84.3193 33.0109 84.2133 32.8718 84.061 32.7724C83.9086 32.6731 83.7165 32.6201 83.4846 32.6201C83.2196 32.6201 82.9811 32.6863 82.7758 32.8122C82.5704 32.9381 82.4181 33.1368 82.3187 33.3952C82.2193 33.6535 82.1729 34.0378 82.1729 34.5412V37.5555H80.583V29.2547H82.1729L82.1796 29.2481Z" fill="white"/>
<path id="Vector_6" d="M91.6329 37.5489V36.6479C91.4142 36.9659 91.1294 37.2242 90.7716 37.4097C90.4139 37.5952 90.0363 37.688 89.6388 37.688C89.2413 37.688 88.8703 37.6018 88.5524 37.423C88.2344 37.2441 88.0025 36.999 87.8568 36.6744C87.711 36.3498 87.6448 35.9126 87.6448 35.3428V31.5402H89.2347V34.3027C89.2347 35.1507 89.2612 35.6674 89.3208 35.8596C89.3804 36.0517 89.4864 36.204 89.6388 36.31C89.7912 36.416 89.9899 36.4757 90.2284 36.4757C90.5 36.4757 90.7451 36.4028 90.9571 36.2504C91.1691 36.098 91.3215 35.9192 91.401 35.6939C91.4805 35.4687 91.5202 34.9321 91.5202 34.0709V31.5336H93.1102V37.5489H91.6329Z" fill="white"/>
<path id="Vector_7" d="M95.9458 33.3687L94.5016 33.1103C94.6606 32.5273 94.9454 32.0967 95.3429 31.8185C95.7404 31.5402 96.33 31.4011 97.1117 31.4011C97.8206 31.4011 98.3505 31.4872 98.695 31.6529C99.0395 31.8185 99.2846 32.0371 99.4304 32.2955C99.5761 32.5538 99.6424 33.0308 99.6424 33.7198L99.6225 35.5747C99.6225 36.1047 99.649 36.4955 99.702 36.7473C99.755 36.999 99.8477 37.2706 99.9868 37.5555H98.4102C98.3704 37.4495 98.3174 37.2905 98.2578 37.0851C98.2313 36.9924 98.2114 36.9261 98.1982 36.8996C97.9266 37.1646 97.6351 37.3634 97.3237 37.4959C97.0124 37.6284 96.6811 37.6946 96.33 37.6946C95.7139 37.6946 95.2237 37.529 94.8659 37.1911C94.5082 36.8532 94.3293 36.4293 94.3293 35.9192C94.3293 35.5813 94.4088 35.2766 94.5745 35.0116C94.7401 34.7466 94.9653 34.5412 95.2568 34.4021C95.5483 34.263 95.9723 34.1371 96.5221 34.0311C97.2641 33.892 97.7808 33.7595 98.0657 33.6403V33.4813C98.0657 33.1766 97.9928 32.9579 97.8404 32.8254C97.6881 32.6929 97.4032 32.6333 96.9858 32.6333C96.701 32.6333 96.4824 32.6863 96.3234 32.7989C96.1644 32.9116 96.0385 33.1037 95.9392 33.3819L95.9458 33.3687ZM98.0723 34.6605C97.8669 34.7267 97.549 34.8129 97.1051 34.9056C96.6612 34.9983 96.3764 35.0911 96.2373 35.1838C96.0319 35.3296 95.9259 35.5151 95.9259 35.7469C95.9259 35.9788 96.012 36.1643 96.1776 36.3233C96.3433 36.4823 96.5552 36.5684 96.8136 36.5684C97.0985 36.5684 97.3767 36.4756 97.6351 36.2835C97.8272 36.1378 97.9531 35.9656 98.0127 35.7602C98.0524 35.6211 98.0723 35.3627 98.0723 34.9851V34.6671V34.6605Z" fill="white"/>
<path id="Vector_8" d="M106.678 37.5488H105.088V34.4816C105.088 33.8324 105.055 33.415 104.988 33.2229C104.922 33.0308 104.809 32.8851 104.657 32.7791C104.505 32.6731 104.319 32.6201 104.107 32.6201C103.829 32.6201 103.584 32.6929 103.365 32.8453C103.147 32.9977 102.994 33.1964 102.915 33.4482C102.835 33.6999 102.795 34.157 102.795 34.8327V37.5555H101.206V31.5402H102.683V32.4213C103.206 31.739 103.869 31.4011 104.664 31.4011C105.015 31.4011 105.333 31.4674 105.624 31.5932C105.916 31.7191 106.134 31.8781 106.287 32.0769C106.439 32.2756 106.538 32.4942 106.598 32.7459C106.658 32.9977 106.684 33.3488 106.684 33.8191V37.5555L106.678 37.5488Z" fill="white"/>
<path id="Vector_9" d="M108.149 37.9463L109.964 38.1649C109.997 38.3769 110.063 38.5227 110.176 38.6022C110.328 38.7148 110.567 38.7744 110.891 38.7744C111.309 38.7744 111.62 38.7148 111.825 38.5889C111.964 38.5028 112.07 38.3703 112.143 38.1848C112.19 38.0523 112.216 37.8072 112.216 37.4561V36.5816C111.739 37.2309 111.143 37.5555 110.414 37.5555C109.606 37.5555 108.963 37.211 108.493 36.5286C108.122 35.9854 107.937 35.3163 107.937 34.5147C107.937 33.5078 108.182 32.7393 108.665 32.2027C109.149 31.6661 109.752 31.4011 110.474 31.4011C111.196 31.4011 111.832 31.7257 112.315 32.3816V31.5402H113.806V36.9394C113.806 37.6482 113.746 38.1782 113.634 38.5293C113.521 38.8804 113.356 39.1587 113.144 39.3574C112.932 39.5561 112.653 39.7151 112.296 39.8278C111.938 39.9404 111.494 40 110.957 40C109.937 40 109.215 39.8278 108.791 39.4766C108.367 39.1255 108.149 38.6817 108.149 38.1517C108.149 38.0987 108.149 38.0325 108.149 37.9596V37.9463ZM109.573 34.4154C109.573 35.0513 109.699 35.5217 109.944 35.8198C110.189 36.1179 110.494 36.2637 110.858 36.2637C111.249 36.2637 111.573 36.1113 111.845 35.8065C112.117 35.5018 112.249 35.0513 112.249 34.4551C112.249 33.8589 112.123 33.3687 111.865 33.0706C111.607 32.7725 111.282 32.6201 110.891 32.6201C110.5 32.6201 110.196 32.7658 109.95 33.0639C109.705 33.362 109.579 33.8125 109.579 34.422L109.573 34.4154Z" fill="white"/>
<path id="Vector_10" d="M120.185 29.2481H123.246C123.935 29.2481 124.465 29.3011 124.823 29.4071C125.313 29.5528 125.724 29.8046 126.075 30.1689C126.426 30.5333 126.684 30.9838 126.87 31.5138C127.055 32.0437 127.141 32.6996 127.141 33.4747C127.141 34.157 127.055 34.7466 126.89 35.2435C126.684 35.8463 126.386 36.3365 126.002 36.7075C125.71 36.9924 125.319 37.211 124.823 37.37C124.452 37.4892 123.961 37.5422 123.339 37.5422H120.185V29.2415V29.2481ZM121.861 30.6525V36.151H123.113C123.584 36.151 123.922 36.1246 124.127 36.0716C124.399 36.0053 124.624 35.886 124.803 35.7271C124.982 35.5681 125.127 35.2965 125.24 34.9255C125.353 34.5545 125.412 34.0444 125.412 33.4018C125.412 32.7592 125.353 32.269 125.24 31.9245C125.127 31.58 124.968 31.315 124.763 31.1229C124.558 30.9308 124.299 30.7983 123.988 30.732C123.756 30.679 123.292 30.6525 122.61 30.6525H121.855H121.861Z" fill="white"/>
<path id="Vector_11" d="M128.552 30.7188V29.2481H130.142V30.7188H128.552ZM128.552 37.5489V31.5336H130.142V37.5489H128.552Z" fill="white"/>
<path id="Vector_12" d="M131.633 37.9463L133.448 38.1649C133.481 38.3769 133.547 38.5227 133.66 38.6022C133.812 38.7148 134.051 38.7744 134.376 38.7744C134.793 38.7744 135.104 38.7148 135.31 38.5889C135.449 38.5028 135.555 38.3703 135.628 38.1848C135.674 38.0523 135.7 37.8072 135.7 37.4561V36.5816C135.223 37.2309 134.627 37.5555 133.899 37.5555C133.09 37.5555 132.448 37.211 131.977 36.5286C131.606 35.9854 131.421 35.3163 131.421 34.5147C131.421 33.5078 131.666 32.7393 132.15 32.2027C132.633 31.6661 133.236 31.4011 133.958 31.4011C134.68 31.4011 135.316 31.7257 135.8 32.3816V31.5402H137.29V36.9394C137.29 37.6482 137.231 38.1782 137.118 38.5293C137.006 38.8804 136.84 39.1587 136.628 39.3574C136.416 39.5561 136.138 39.7151 135.78 39.8278C135.422 39.9404 134.978 40 134.442 40C133.422 40 132.699 39.8278 132.275 39.4766C131.851 39.1255 131.633 38.6817 131.633 38.1517C131.633 38.0987 131.633 38.0325 131.633 37.9596V37.9463ZM133.057 34.4154C133.057 35.0513 133.183 35.5217 133.428 35.8198C133.673 36.1179 133.978 36.2637 134.342 36.2637C134.733 36.2637 135.058 36.1113 135.329 35.8065C135.601 35.5018 135.734 35.0513 135.734 34.4551C135.734 33.8589 135.608 33.3687 135.349 33.0706C135.091 32.7725 134.766 32.6201 134.376 32.6201C133.985 32.6201 133.68 32.7658 133.435 33.0639C133.19 33.362 133.064 33.8125 133.064 34.422L133.057 34.4154Z" fill="white"/>
<path id="Vector_13" d="M138.86 30.7188V29.2481H140.45V30.7188H138.86ZM138.86 37.5489V31.5336H140.45V37.5489H138.86Z" fill="white"/>
<path id="Vector_14" d="M144.843 31.5336V32.7989H143.756V35.2236C143.756 35.7138 143.769 35.9987 143.789 36.0848C143.809 36.1709 143.856 36.2305 143.928 36.2835C144.001 36.3365 144.094 36.363 144.2 36.363C144.346 36.363 144.558 36.31 144.843 36.2107L144.982 37.4429C144.611 37.6018 144.193 37.6814 143.723 37.6814C143.438 37.6814 143.18 37.635 142.948 37.5356C142.716 37.4362 142.55 37.317 142.444 37.1646C142.338 37.0123 142.266 36.8069 142.219 36.5419C142.186 36.3564 142.166 35.9854 142.166 35.4223V32.7989H141.438V31.5336H142.166V30.3412L143.763 29.4137V31.5402H144.849L144.843 31.5336Z" fill="white"/>
<path id="Vector_15" d="M147.135 33.3687L145.691 33.1103C145.85 32.5273 146.134 32.0967 146.532 31.8185C146.929 31.5402 147.519 31.4011 148.301 31.4011C149.01 31.4011 149.54 31.4872 149.884 31.6529C150.228 31.8185 150.474 32.0371 150.619 32.2955C150.765 32.5538 150.831 33.0308 150.831 33.7198L150.811 35.5747C150.811 36.1047 150.838 36.4955 150.891 36.7473C150.944 36.999 151.037 37.2706 151.176 37.5555H149.599C149.559 37.4495 149.506 37.2905 149.447 37.0851C149.42 36.9924 149.4 36.9261 149.387 36.8996C149.116 37.1646 148.824 37.3634 148.513 37.4959C148.201 37.6284 147.87 37.6946 147.519 37.6946C146.903 37.6946 146.413 37.529 146.055 37.1911C145.697 36.8532 145.518 36.4293 145.518 35.9192C145.518 35.5813 145.598 35.2766 145.763 35.0116C145.929 34.7466 146.154 34.5412 146.446 34.4021C146.737 34.263 147.161 34.1371 147.711 34.0311C148.453 33.892 148.97 33.7595 149.255 33.6403V33.4813C149.255 33.1766 149.182 32.9579 149.029 32.8254C148.877 32.6929 148.592 32.6333 148.175 32.6333C147.89 32.6333 147.671 32.6863 147.512 32.7989C147.353 32.9116 147.227 33.1037 147.128 33.3819L147.135 33.3687ZM149.261 34.6605C149.056 34.7267 148.738 34.8129 148.294 34.9056C147.85 34.9983 147.565 35.0911 147.426 35.1838C147.221 35.3296 147.115 35.5151 147.115 35.7469C147.115 35.9788 147.201 36.1643 147.367 36.3233C147.532 36.4823 147.744 36.5684 148.003 36.5684C148.287 36.5684 148.566 36.4756 148.824 36.2835C149.016 36.1378 149.142 35.9656 149.202 35.7602C149.241 35.6211 149.261 35.3627 149.261 34.9851V34.6671V34.6605Z" fill="white"/>
<path id="Vector_16" d="M152.395 37.5489V29.2481H153.985V37.5489H152.395Z" fill="white"/>
<path id="Vector_17" d="M64.9882 9.38724C66.6311 14.422 69.6984 18.6154 74.3622 20.6293C73.7262 21.4111 72.7193 22.683 72.1429 23.3985C67.5586 21.1262 64.6901 17.1381 62.7689 11.9775C62.1926 13.8721 60.7484 16.6214 60.7484 16.6214C62.2456 17.9397 64.4384 20.1325 65.3128 21.4044L62.6696 23.3256C61.9475 22.1795 60.3509 20.4571 58.9531 19.0593C57.4294 20.7287 55.4619 22.2259 52.918 23.3985C52.2887 22.6896 51.6593 21.9874 50.6987 20.8811C56.8332 18.2378 59.2247 13.8987 60.1456 9.38724H51.4473V6.32H60.5695C60.7087 4.14047 60.7418 2.0338 60.7683 0.139135H64.0343C64.0078 2.0603 64.0144 4.08085 63.968 6.32H73.6865V9.38724H64.9882Z" fill="white"/>
<path id="Vector_18" d="M83.3122 7.11495L83.2857 6.14112C82.4112 6.81684 81.5434 7.41308 80.6159 7.93643H91.136V15.7668H82.4841C82.4311 16.0186 82.4112 16.2902 82.3582 16.5419H91.1823V19.2713C91.1823 21.4442 89.4202 23.1997 87.2539 23.1997H82.0601V18.1385C81.709 19.7085 81.1856 21.2322 80.4635 22.5042C79.8276 22.2392 78.602 21.6959 77.8733 21.3846C79.8408 18.1915 80.0396 13.7529 80.0396 10.8115V8.29415L79.4632 8.59227C79.1916 7.89667 78.4165 6.39948 77.9197 5.75026C80.8147 4.53132 83.7295 2.48428 85.3261 0.0927582L88.0422 1.16598C87.8898 1.39122 87.7441 1.58996 87.5917 1.7887C89.44 2.8619 91.5069 4.08084 92.653 4.9023L91.1293 7.3932C90.4536 6.84335 89.4864 6.19412 88.4132 5.49852V7.12158H83.2989L83.3122 7.11495ZM88.4463 13.7198V12.6996H82.7358C82.7358 13.0242 82.7093 13.3753 82.6828 13.7198H88.4397H88.4463ZM82.7888 9.97683V10.9507H88.4463V9.97683H82.7888ZM88.2476 5.36604C87.4526 4.86919 86.6245 4.34583 85.8759 3.86885C85.3526 4.3657 84.8027 4.88906 84.2529 5.36604H88.241H88.2476ZM84.5311 18.5558V21.0997H86.6312C87.7176 21.0997 88.5987 20.2186 88.5987 19.1322V18.5558H84.5377H84.5311ZM95.9256 17.8867H93.13V2.66978H95.9256V17.8867ZM100.49 0.178883V19.8278C100.49 21.4243 100.252 22.1398 99.2711 22.6963C98.2906 23.2527 96.1111 23.2925 93.8322 23.2925C93.6732 22.4114 93.5208 21.3647 93.3751 20.3246C94.6868 20.4107 96.6543 20.4505 97.0783 20.3511C97.4692 20.2584 97.6547 20.2252 97.6547 19.8013V0.178883H100.497H100.49Z" fill="white"/>
<path id="Vector_19" d="M125.763 7.32033C125.339 10.9639 124.617 14.0047 123.445 16.5221C124.491 18.4896 125.916 20.0597 127.731 21.06C127.188 21.7092 126.459 22.5837 125.863 23.3521C124.24 22.2789 122.948 20.8347 121.921 19.0394C120.576 20.8877 118.827 22.3319 116.535 23.478C116.383 23.1534 116.058 22.5572 115.714 22.0338L114.965 22.7095C114.17 22.2326 113.143 21.7357 111.971 21.2653C110.447 22.1398 108.228 22.8884 105.088 23.4117C104.75 22.8685 104.333 22.1332 103.942 21.4906C106.187 21.1395 107.857 20.7155 109.155 20.1921C107.996 19.788 107.201 19.5164 106.101 19.1719C106.492 18.4631 106.711 18.0656 107.088 17.2773H104.445V15.2832H108.36C108.586 14.9123 108.784 14.5346 108.957 14.1637H105.492V9.75161H109.904V9.02952H105.916V6.28688H104.193V4.19347H105.916V1.6231H109.904V0.12591H112.15V1.6231H116.436V4.19347H117.734V6.28688H116.436V9.02952H112.15V9.75161H116.787V10.7519C118.158 7.98282 119.178 3.99474 119.801 0.132541L122.246 0.583016C122.02 1.95433 121.789 3.29915 121.464 4.74996H127.433V7.3402H125.763V7.32033ZM107.936 12.5075H109.904V11.4078H107.936V12.5075ZM108.109 3.45814V4.3326H109.904V3.45814H108.109ZM109.904 7.1481V6.12789H108.109V7.1481H109.904ZM109.778 17.2707C109.606 17.5688 109.407 17.847 109.228 18.1186C110.023 18.3439 110.825 18.5691 111.6 18.8407C112.249 18.3439 112.647 17.794 112.898 17.2707H109.785H109.778ZM115.363 17.2707C115.164 18.0921 114.766 18.9401 114.018 19.7417C114.813 20.0928 115.588 20.4174 116.29 20.742C118.238 19.6688 119.655 18.271 120.729 16.4558C120.132 14.9122 119.655 13.1898 119.258 11.3217C118.933 12.0967 118.582 12.8189 118.238 13.4416C117.767 12.9513 117.324 12.4942 116.794 11.9709V14.1637H111.56C111.388 14.5346 111.189 14.9123 110.984 15.2832H113.203V13.9914H115.522V15.2832H117.589V17.2773H115.369L115.363 17.2707ZM112.143 3.45814V4.3326H114.091V3.45814H112.143ZM114.091 7.1481V6.12789H112.143V7.1481H114.091ZM112.143 11.4144V12.5141H114.19V11.4144H112.143ZM120.669 7.32696C120.994 9.47337 121.464 11.5138 122.093 13.3356C122.643 11.5933 122.994 9.59261 123.213 7.32696H120.669Z" fill="white"/>
<path id="Vector_20" d="M139.477 1.08644C138.827 2.78237 138.052 4.50479 137.158 6.12122V23.3521H134.164V10.785C133.64 11.4342 133.117 12.057 132.594 12.6333C132.17 11.8251 131.481 10.4207 130.997 9.53957C133.243 7.2938 135.409 3.75621 136.681 0.211996L139.477 1.08644ZM153.985 19.5628V22.4312H138.35V19.5628H147.029C147.877 16.3233 148.725 11.4873 149.076 7.89666L152.17 8.37362C151.547 12.1166 150.626 16.4492 149.752 19.5694H153.991L153.985 19.5628ZM153.137 4.30606V7.17455H139.251V4.30606H153.137ZM144.889 4.63066V0.00663185H147.758V4.63066H144.889ZM142.193 18.8672C141.769 16.2173 141.166 12.0702 140.722 8.57237L143.412 7.97615C143.968 11.4674 144.598 15.5084 145.108 18.0457L142.193 18.8672Z" fill="white"/>
<path id="Vector_21" d="M39.4367 37.5555H16.8994L22.5304 0H45.0677L44.6304 2.97449C44.0872 6.65782 40.9272 9.38722 37.1975 9.38722H31.9242L28.2608 33.7992H39.9998L39.4367 37.5555Z" fill="#EA5514"/>
<path id="Vector_22" d="M1.41106 0L0 9.38722H13.6138L9.38721 37.5555H13.1434L18.781 0H1.41106Z" fill="#2660AD"/>
</g>
</svg>
