<svg width="160" height="160" viewBox="0 0 160 160" fill="none" xmlns="http://www.w3.org/2000/svg">
<g clip-path="url(#clip0_118_144)">
<path d="M80 160C124.183 160 160 124.183 160 80C160 35.8172 124.183 0 80 0C35.8172 0 0 35.8172 0 80C0 124.183 35.8172 160 80 160Z" fill="#2660AD"/>
<path d="M58.71 60.11H47.52L43.76 39.11C43.33 36.72 45.05 34.51 47.33 34.51H56.07C56.08 34.77 56.09 35.04 56.12 35.31L58.71 60.11Z" fill="white"/>
<path d="M76.5901 60.11H61.7201L59.1001 35C59.0801 34.83 59.0701 34.67 59.0701 34.51H75.6501C75.6501 34.79 75.6601 35.03 75.6701 35.21L76.5901 60.11Z" fill="white"/>
<path d="M96.0701 63.11L95.1301 88.72H93.4501V158.87C92.9501 158.96 92.4501 159.04 91.9501 159.11C91.4501 159.19 90.9501 159.26 90.4501 159.32V94.87C90.4501 93.49 89.3301 92.37 87.9501 92.37H0.950068C0.870068 91.87 0.800068 91.37 0.740068 90.87C0.660068 90.37 0.600068 89.87 0.550068 89.37H87.9501C88.8501 89.37 89.7001 89.59 90.4501 89.98V79.28C90.4501 77.9 89.3301 76.78 87.9501 76.78H0.0700684C0.0800684 76.28 0.110068 75.78 0.140068 75.28C0.170068 74.78 0.200068 74.28 0.240068 73.78H49.9601L48.0501 63.11H59.0201L60.1301 73.78H63.1501L62.0301 63.11H76.7001L77.1001 73.78H80.0901L79.7001 63.11H96.0701Z" fill="white"/>
<path d="M97.1199 34.51C97.1199 34.7 97.1199 34.9 97.1099 35.1L96.1899 60.11H79.5899L78.6699 35.1C78.6599 34.9 78.6599 34.7 78.6599 34.51H97.1199Z" fill="white"/>
<path d="M113.74 63.11L111.06 88.72H98.1299L99.0699 63.11H113.74Z" fill="white"/>
<path d="M127.72 63.11L124.05 83.64L123.71 85.57C123.38 87.39 121.88 88.72 120.13 88.72H114.09L116.76 63.11H127.72Z" fill="white"/>
<path d="M116.7 34.51C116.7 34.67 116.69 34.83 116.67 35L114.05 60.11H99.1799L100.1 35.21C100.11 35.03 100.11 34.79 100.11 34.51H116.7Z" fill="white"/>
<path d="M139.14 26.12C136.23 27.03 133.94 29.64 133.34 32.97L128.43 60.11H117.07L119.66 35.31C119.69 35.04 119.7 34.78 119.71 34.51H128.44C128.98 34.51 129.49 34.63 129.94 34.86L130.38 32.44C131.1 28.5 133.61 25.32 136.91 23.78C137.67 24.54 138.41 25.32 139.14 26.12Z" fill="white"/>
<path d="M107.56 97.31C104.06 97.31 101.21 100.16 101.21 103.66C101.21 107.16 104.06 110.01 107.56 110.01C111.06 110.01 113.9 107.16 113.9 103.66C113.9 100.16 111.05 97.31 107.56 97.31ZM107.56 107.01C105.71 107.01 104.21 105.51 104.21 103.66C104.21 101.81 105.71 100.31 107.56 100.31C109.41 100.31 110.9 101.82 110.9 103.66C110.9 105.5 109.4 107.01 107.56 107.01Z" fill="white"/>
<path d="M83.49 83.5C83.49 85.14 82.18 86.46 80.56 86.5H80.49C78.83 86.5 77.49 85.16 77.49 83.5C77.49 81.84 78.75 80.58 80.34 80.51C80.39 80.5 80.44 80.5 80.49 80.5C82.14 80.5 83.49 81.84 83.49 83.5Z" fill="white"/>
<path d="M70.49 86.5C72.1468 86.5 73.49 85.1569 73.49 83.5C73.49 81.8431 72.1468 80.5 70.49 80.5C68.8331 80.5 67.49 81.8431 67.49 83.5C67.49 85.1569 68.8331 86.5 70.49 86.5Z" fill="white"/>
<path d="M63.49 83.5C63.49 84.82 62.63 85.94 61.45 86.34C61.15 86.45 60.82 86.5 60.49 86.5C58.83 86.5 57.49 85.16 57.49 83.5C57.49 81.84 58.83 80.5 60.49 80.5C60.61 80.5 60.73 80.51 60.84 80.53C62.33 80.7 63.49 81.96 63.49 83.5Z" fill="white"/>
<path d="M19.9901 106.68V122.68C19.9901 125.2 18.2801 127.33 15.9701 127.97C15.2801 127.05 14.6201 126.13 13.9701 125.18H14.4901C15.8701 125.18 16.9901 124.05 16.9901 122.68V106.68C16.9901 105.3 15.8701 104.18 14.4901 104.18H3.73009C3.40009 103.19 3.11009 102.19 2.84009 101.18H14.4901C17.5201 101.18 19.9901 103.64 19.9901 106.68Z" fill="white"/>
<path d="M46.49 101.18H30.49C27.45 101.18 24.99 103.64 24.99 106.68V122.68C24.99 125.71 27.45 128.18 30.49 128.18H46.49C49.52 128.18 51.99 125.71 51.99 122.68V106.68C51.99 103.64 49.52 101.18 46.49 101.18ZM48.99 122.68C48.99 124.05 47.87 125.18 46.49 125.18H30.49C29.11 125.18 27.99 124.05 27.99 122.68V106.68C27.99 105.3 29.11 104.18 30.49 104.18H46.49C47.87 104.18 48.99 105.3 48.99 106.68V122.68Z" fill="white"/>
<path d="M78.49 101.18H62.49C59.45 101.18 56.99 103.64 56.99 106.68V122.68C56.99 125.71 59.45 128.18 62.49 128.18H69.16L68.55 135.2L72.52 132.39L75.12 138.65L76.51 138.05L73.66 131.89L78.42 130.88L74.94 128.18H78.49C81.52 128.18 83.99 125.71 83.99 122.68V106.68C83.99 103.64 81.52 101.18 78.49 101.18ZM80.99 122.68C80.99 124.05 79.87 125.18 78.49 125.18H71.07L69.52 123.98L69.42 125.18H62.49C61.11 125.18 59.99 124.05 59.99 122.68V106.68C59.99 105.3 61.11 104.18 62.49 104.18H78.49C79.87 104.18 80.99 105.3 80.99 106.68V122.68Z" fill="white"/>
</g>
<defs>
<clipPath id="clip0_118_144">
<rect width="160" height="160" fill="white"/>
</clipPath>
</defs>
</svg>
