<svg width="160" height="160" viewBox="0 0 160 160" fill="none" xmlns="http://www.w3.org/2000/svg">
<g clip-path="url(#clip0_118_172)">
<path d="M80 160C124.183 160 160 124.183 160 80C160 35.8172 124.183 0 80 0C35.8172 0 0 35.8172 0 80C0 124.183 35.8172 160 80 160Z" fill="#2660AD"/>
<path d="M106.29 108.07H98.34L96.38 97.11C96.14 95.79 97.1 94.56 98.36 94.56H105.12C105.12 94.72 105.12 94.89 105.14 95.05L106.29 108.07Z" fill="#2660AD"/>
<path d="M41.99 109.23V109.25C41.99 109.25 42.01 109.23 42.02 109.23H41.99Z" fill="white"/>
<path d="M106.29 108.07H98.34L96.38 97.11C96.14 95.79 97.1 94.56 98.36 94.56H105.12C105.12 94.72 105.12 94.89 105.14 95.05L106.29 108.07Z" fill="white"/>
<path d="M109.55 94.56L108.7 93.1L107.21 90.5L90.95 62.34H97.86C100.89 62.34 103.36 59.87 103.36 56.84V40.08H104.73C105.85 40.08 106.91 39.54 107.57 38.63C108.23 37.73 108.41 36.55 108.06 35.49L102.29 17.95C101.82 16.51 100.48 15.54 98.96 15.54H61.04C59.52 15.54 58.19 16.51 57.72 17.95L51.94 35.49C51.6 36.55 51.78 37.73 52.43 38.63C53.09 39.54 54.15 40.08 55.27 40.08H56.64V56.84C56.64 59.87 59.11 62.34 62.14 62.34H69.06L53.29 89.66C53.69 89.97 54.08 90.31 54.44 90.67C54.8 91.03 55.16 91.43 55.48 91.85L72.52 62.34H87.48L105.24 93.1L106.08 94.56H107.82L108.15 95.14L108.47 98.69L109.3 108.07H119.32V94.56H109.55ZM55.27 37.08C55.05 37.08 54.92 36.95 54.86 36.88C54.81 36.8 54.73 36.64 54.79 36.43L60.57 18.88C60.63 18.68 60.82 18.54 61.04 18.54H98.96C99.18 18.54 99.37 18.68 99.44 18.88L105.21 36.43C105.28 36.64 105.2 36.8 105.14 36.88C105.08 36.95 104.96 37.08 104.73 37.08H55.27ZM84.04 59.34C84.08 59.18 84.1 59.01 84.1 58.84V49.66C84.1 48.7 83.41 47.89 82.5 47.7H82.49C82.37 47.67 82.23 47.66 82.1 47.66H77.91C77.77 47.66 77.64 47.67 77.51 47.7H77.5C76.59 47.89 75.91 48.7 75.91 49.66V58.84C75.91 59.01 75.93 59.18 75.97 59.34H62.14C60.77 59.34 59.64 58.22 59.64 56.84V40.08H100.36V56.84C100.36 58.22 99.24 59.34 97.86 59.34H84.04Z" fill="white"/>
<path d="M133.53 94.56C133.53 94.63 133.53 94.71 133.52 94.79L132.34 108.07H122.32V94.56H133.53Z" fill="white"/>
<path d="M119.32 111.07V124.58H110.76L109.92 115.12L109.66 112.12L109.56 111.07H119.32Z" fill="white"/>
<path d="M132.08 111.07L130.88 124.58H122.32V111.07H132.08Z" fill="white"/>
<path d="M142.76 111.07L140.66 122.84C140.48 123.85 139.65 124.58 138.68 124.58H133.89L135.09 111.07H142.76Z" fill="white"/>
<path d="M151.18 88.88C151.18 89.71 150.51 90.38 149.68 90.38C147.82 90.38 146.2 91.83 145.84 93.83L145.29 96.86V96.9L145.26 97.11L143.3 108.07H135.35L136.5 95.05C136.52 94.89 136.53 94.72 136.52 94.56H142.66L142.89 93.3C143.51 89.87 146.37 87.38 149.68 87.38C150.51 87.38 151.18 88.05 151.18 88.88Z" fill="white"/>
<path d="M134.42 131.25C134.42 132.74 133.22 133.94 131.73 133.94C130.24 133.94 129.05 132.74 129.05 131.25C129.05 129.76 130.25 128.57 131.73 128.57C133.21 128.57 134.42 129.77 134.42 131.25Z" fill="white"/>
<path d="M112.59 131.25C112.59 132.74 111.39 133.94 109.91 133.94C108.43 133.94 107.22 132.74 107.22 131.25C107.22 129.76 108.42 128.57 109.91 128.57C111.4 128.57 112.59 129.77 112.59 131.25Z" fill="white"/>
<path d="M55.2601 99.84C55.2601 102.94 53.8301 105.71 51.6001 107.55H51.5901C51.1801 107.88 50.7401 108.19 50.2801 108.46C49.7501 108.76 49.1801 109.03 48.5901 109.23C47.5601 109.59 46.4501 109.79 45.3001 109.79H45.1301C44.5701 109.78 44.0201 109.72 43.4901 109.63C42.9901 109.53 42.5001 109.4 42.0201 109.23H41.9901C41.7801 109.15 41.5801 109.07 41.3801 108.99C41.0201 108.83 40.6701 108.66 40.3301 108.46C40.1601 108.36 39.9901 108.25 39.8201 108.14C39.5401 107.96 39.2701 107.75 39.0101 107.55C38.6701 107.27 38.3601 106.98 38.0701 106.66C36.5601 105.06 35.5701 102.96 35.3801 100.63C35.3601 100.37 35.3501 100.11 35.3501 99.84C35.3501 99.47 35.3701 99.1 35.4101 98.74C35.4201 98.62 35.4401 98.51 35.4601 98.4C35.5401 97.81 35.6801 97.24 35.8701 96.69C35.9001 96.57 35.9501 96.45 35.9901 96.33C36.5301 94.91 37.3801 93.64 38.4701 92.62C39.0701 92.04 39.7501 91.54 40.4801 91.14C41.9101 90.34 43.5501 89.89 45.3001 89.89C47.7701 89.89 50.0301 90.79 51.7701 92.29C52.1701 92.62 52.5401 92.99 52.8701 93.39C53.2301 93.8 53.5501 94.25 53.8301 94.72C54.7401 96.21 55.2601 97.97 55.2601 99.84Z" fill="white"/>
<path d="M37.7301 88.67C37.7301 88.91 37.7201 89.14 37.7001 89.37C35.8101 90.74 34.3001 92.61 33.3801 94.78C33.1801 95.24 33.0101 95.71 32.8701 96.19C32.8001 96.42 32.7401 96.65 32.7001 96.88C32.4101 97.03 32.1001 97.16 31.7901 97.28C30.7801 97.67 29.6701 97.88 28.5201 97.88C27.3701 97.88 26.2801 97.67 25.2601 97.28C24.7101 97.07 24.1901 96.81 23.7001 96.51C23.2601 96.24 22.8501 95.93 22.4601 95.59C20.5401 93.9 19.3201 91.43 19.3201 88.67C19.3201 83.59 23.4501 79.46 28.5201 79.46C33.5901 79.46 37.7301 83.59 37.7301 88.67Z" fill="white"/>
<path d="M42.02 109.23C42.02 109.23 42 109.24 41.98 109.25V109.23H42.02Z" fill="#2660AD"/>
<path d="M41.99 109.23V109.25C41.99 109.25 42.01 109.23 42.02 109.23H41.99Z" fill="white"/>
<path d="M107.75 124.58H102.96C101.99 124.58 101.16 123.85 100.98 122.84L99.5999 115.12H57.7599C59.0599 117.86 59.8099 120.86 59.8099 123.67C59.8099 131.83 59.2199 135.44 45.2999 135.44C31.3799 135.44 30.7999 131.83 30.7999 123.67C30.7999 122.44 30.9399 121.17 31.2199 119.91C30.3899 119.95 29.4899 119.97 28.5199 119.97C16.7099 119.97 15.6599 117.25 15.6599 109.49C15.6599 105.42 17.4499 100.87 20.2699 97.65C20.6399 97.99 21.0199 98.3 21.4199 98.59C21.8199 98.88 22.2399 99.15 22.6799 99.38C20.2599 102.02 18.6599 105.99 18.6599 109.49C18.6599 115.68 18.6599 116.97 28.5199 116.97C29.8999 116.97 31.0899 116.94 32.1099 116.88C33.1299 114.13 34.7299 111.53 36.7099 109.51C37.0799 109.85 37.4599 110.15 37.8699 110.44C38.0399 110.56 38.2099 110.67 38.3799 110.78C38.6299 110.94 38.8999 111.1 39.1599 111.25C38.8799 111.51 38.6099 111.79 38.3499 112.09C37.2399 113.32 36.2899 114.8 35.5399 116.39C35.2899 116.92 35.0599 117.47 34.8599 118.03C34.6699 118.56 34.4999 119.09 34.3599 119.63C33.9999 120.98 33.7999 122.35 33.7999 123.67C33.7999 130.93 33.7999 132.44 45.2999 132.44C56.7999 132.44 56.8099 130.93 56.8099 123.67C56.8099 120.84 55.9099 117.77 54.4199 115.12C54.1199 114.6 53.8099 114.1 53.4699 113.62C53.0999 113.09 52.6999 112.58 52.2899 112.12C52.0099 111.81 51.7299 111.51 51.4399 111.24C51.8899 111 52.3199 110.73 52.7399 110.43C53.1399 110.15 53.5299 109.85 53.8999 109.51C54.6799 110.3 55.3999 111.18 56.0399 112.12H99.0599L98.8799 111.07H106.55L106.65 112.12L106.91 115.12L107.75 124.58Z" fill="white"/>
<path d="M42.02 109.23C42.02 109.23 42 109.24 41.98 109.25V109.23H42.02Z" fill="white"/>
<path d="M41.99 109.23V109.25C41.99 109.25 42.01 109.23 42.02 109.23H41.99ZM41.99 109.23V109.25C41.99 109.25 42.01 109.23 42.02 109.23H41.99ZM41.99 109.23V109.25C41.99 109.25 42.01 109.23 42.02 109.23H41.99Z" fill="#2660AD"/>
</g>
<defs>
<clipPath id="clip0_118_172">
<rect width="160" height="160" fill="white"/>
</clipPath>
</defs>
</svg>
